# xmcd
#
# Track frame offsets:
#	150
#	13107
#	25385
#	38272
#	53157
#	73327
#	98754
#	114785
#	128628
#	145293
#	167990
#
# Disc length: 2590 seconds
#
# Revision: 0
# Processed by: cddbd v1.5.2PL0 Copyright (c) Steve Scherf et al.
# Submitted via: audiograbber 1.83.01
#
DISCID=8e0a1c0b
DTITLE=Jeff Beck - 21 Grandes Exitos  disk 1
DYEAR=2001
DGENRE=Rock
TTITLE0=Hi-Ho Silver Lining
TTITLE1=Tallyman
TTITLE2=Beck´s Bolero
TTITLE3=Shapes Of Things
TTITLE4=She´s A Woman
TTITLE5=Scatterbrain
TTITLE6=Get Working
TTITLE7=Plynth (Water Down The Drain)
TTITLE8=Back on the Streets
TTITLE9=Definitely Maybe
TTITLE10=New Ways Train Vain
EXTD=
EXTT0=
EXTT1=
EXTT2=
EXTT3=
EXTT4=
EXTT5=
EXTT6=
EXTT7=
EXTT8=
EXTT9=
EXTT10=
PLAYORDER=
